<svg xmlns="http://www.w3.org/2000/svg" width="32" height="32" viewBox="0 0 32 32"><path d="M12.7092023,13.0133181 C13.5646936,13.0133181 14.2930173,13.1925088 14.8941734,13.5508903 C15.4953295,13.9092719 16.1658497,14.412162 16.9057341,15.0595609 C17.437526,15.54511 17.8826127,15.9034915 18.2409942,16.1347054 C18.5993757,16.3659192 18.986659,16.4815262 19.4028439,16.4815262 C20.6282775,16.4815262 21.7727861,15.4988672 22.8363699,13.5335493 L24.9172948,14.6433759 C24.2236532,15.9381736 23.4548671,16.9901967 22.6109364,17.7994453 C21.7670058,18.6086938 20.6629595,19.0133181 19.2987977,19.0133181 C18.5126705,19.0133181 17.8363699,18.845688 17.269896,18.5104279 C16.703422,18.1751678 16.0386821,17.6838383 15.2756763,17.0364395 C14.7438844,16.527769 14.2814566,16.1520464 13.8883931,15.9092719 C13.4953295,15.6664973 13.0675838,15.54511 12.6051561,15.54511 C11.9115145,15.54511 11.2930173,15.8052256 10.7496647,16.3254568 C10.2063121,16.845688 9.68030058,17.5682314 9.17163006,18.4930869 L7.0907052,17.4526245 C7.78434682,16.111584 8.55313295,15.0364395 9.39706358,14.2271909 C10.2409942,13.4179424 11.3450405,13.0133181 12.7092023,13.0133181 Z"/></svg>
